<?xml version="1.0" encoding="UTF-8"?>
<!DOCTYPE svg PUBLIC "-//W3C//DTD SVG 1.1//EN" "http://www.w3.org/Graphics/SVG/1.1/DTD/svg11.dtd">
<!-- Creator: CorelDRAW 2021 (64-Bit) -->
<svg xmlns="http://www.w3.org/2000/svg" xml:space="preserve" width="1.37041in" height="0.905382in" version="1.1" style="shape-rendering:geometricPrecision; text-rendering:geometricPrecision; image-rendering:optimizeQuality; fill-rule:evenodd; clip-rule:evenodd"
viewBox="0 0 1293.12 854.32"
 xmlns:xlink="http://www.w3.org/1999/xlink"
 xmlns:xodm="http://www.corel.com/coreldraw/odm/2003">
 <defs>
  <style type="text/css">
   <![CDATA[
    .fil0 {fill:#0F4C82}
    .fil1 {fill:#333333}
    .fil2 {fill:#0F4C82;fill-rule:nonzero}
    .fil3 {fill:#333333;fill-rule:nonzero}
   ]]>
  </style>
 </defs>
 <g id="Layer_x0020_1">
  <metadata id="CorelCorpID_0Corel-Layer"/>
  <g id="_2501439086512">
   <g>
    <path class="fil0" d="M842.66 422.36l63.59 0c4.93,0 8.96,-4.03 8.96,-8.96l0 -404.44c0,-4.93 -4.03,-8.96 -8.96,-8.96l-63.59 0c-4.93,0 -8.96,4.03 -8.96,8.96l0 404.44c0,4.93 4.03,8.96 8.96,8.96z"/>
    <path class="fil0" d="M719.86 422.36l63.59 0c4.93,0 8.96,-4.03 8.96,-8.96l0 -306.49c0,-4.93 -4.03,-8.97 -8.96,-8.97l-63.59 0c-4.93,0 -8.96,4.03 -8.96,8.97l0 306.49c0,4.93 4.03,8.96 8.96,8.96z"/>
    <path class="fil1" d="M597.05 422.36l63.59 0c4.93,0 8.96,-4.03 8.96,-8.96l0 -206.75c0,-4.93 -4.03,-8.96 -8.96,-8.96l-63.59 0c-4.93,0 -8.96,4.03 -8.96,8.96l0 206.75c0,4.93 4.03,8.96 8.96,8.96z"/>
    <path class="fil1" d="M353.45 125.2l0 63.59c0,4.93 4.03,8.96 8.96,8.96l206.75 0c4.93,0 8.96,-4.03 8.96,-8.96l0 -63.59c0,-4.93 -4.03,-8.96 -8.96,-8.96l-206.75 0c-4.93,0 -8.96,4.03 -8.96,8.96z"/>
    <polygon class="fil1" points="425.23,273.05 356.06,342.22 353.45,201.25 "/>
    <polygon class="fil1" points="511.12,352.67 580.3,421.84 439.33,424.46 "/>
   </g>
   <path class="fil2" d="M-0 848.02l0 -321.7 67.34 0 0 321.7 -67.34 0zm243.21 0l0 -144.38c0,-18.41 -3.07,-30.85 -9.21,-37.31 -6.14,-6.46 -16.63,-9.69 -31.49,-9.69 -32.62,0 -48.93,18.25 -48.93,54.75l0 136.63 -62.98 0 0 -238.37 60.08 0 0 34.88c7.43,-13.57 17.28,-23.82 29.55,-30.77 12.27,-6.94 28.1,-10.42 47.48,-10.42 11.3,0 21.8,1.7 31.49,5.09 9.69,3.39 18.01,8.48 24.95,15.26 6.95,6.78 12.44,15.1 16.48,24.95 4.03,9.85 6.06,21.24 6.06,34.16l0 165.21 -63.47 0zm154.56 -135.66l0 135.66 -67.34 0 0 -321.7 229.16 0 0 56.2 -161.82 0 0 73.16 141.47 0 0 56.69 -141.47 0zm177.81 135.66l0 -238.37 62.98 0 0 238.37 -62.98 0zm0 -266.96l0 -58.62 62.98 0 0 58.62 -62.98 0zm242.25 266.96l0 -144.38c0,-18.41 -3.07,-30.85 -9.21,-37.31 -6.14,-6.46 -16.63,-9.69 -31.49,-9.69 -32.62,0 -48.93,18.25 -48.93,54.75l0 136.63 -62.98 0 0 -238.37 60.08 0 0 34.88c7.43,-13.57 17.28,-23.82 29.55,-30.77 12.27,-6.94 28.1,-10.42 47.48,-10.42 11.3,0 21.8,1.7 31.49,5.09 9.69,3.39 18.01,8.48 24.95,15.26 6.95,6.78 12.44,15.1 16.48,24.95 4.03,9.85 6.06,21.24 6.06,34.16l0 165.21 -63.47 0zm87.21 0l0 -65.41 67.34 0 0 65.41 -67.34 0z"/>
   <path class="fil3" d="M1140.5 731.26c-3.23,3.23 -7.92,5.81 -14.05,7.75 -6.14,1.94 -15.02,4.04 -26.65,6.3 -18.08,3.55 -30.52,8.07 -37.31,13.56 -6.78,5.49 -10.17,13.4 -10.17,23.74 0,17.76 10.17,26.65 30.52,26.65 8.08,0 15.58,-1.37 22.53,-4.12 6.95,-2.75 12.92,-6.46 17.93,-11.14 5,-4.68 9.04,-10.18 12.11,-16.48 3.07,-6.3 4.6,-13 4.6,-20.11l0.49 -26.16zm4.36 116.76c-1.94,-6.14 -3.23,-13.24 -3.87,-21.32 -7.43,8.4 -17.28,15.1 -29.55,20.11 -12.27,5.01 -26.49,7.51 -42.64,7.51 -27.45,0 -47.56,-6.06 -60.32,-18.17 -12.76,-12.11 -19.14,-27.86 -19.14,-47.24 0,-17.12 2.75,-30.76 8.24,-40.94 5.49,-10.18 13.08,-18.17 22.77,-23.98 9.69,-5.81 21.24,-10.09 34.64,-12.84 13.4,-2.75 28.02,-5.25 43.85,-7.51 15.83,-2.26 26.48,-5.25 31.97,-8.96 5.49,-3.71 8.24,-9.77 8.24,-18.17 0,-7.75 -3.63,-13.81 -10.9,-18.17 -7.27,-4.36 -17.04,-6.54 -29.31,-6.54 -14.54,0 -24.95,3.23 -31.25,9.69 -6.3,6.46 -10.26,15.02 -11.87,25.68l-58.63 0c0.32,-12.27 2.34,-23.58 6.06,-33.92 3.71,-10.34 9.69,-19.22 17.93,-26.65 8.24,-7.43 18.98,-13.16 32.22,-17.2 13.24,-4.04 29.39,-6.06 48.45,-6.06 18.73,0 34.64,2.1 47.72,6.3 13.08,4.2 23.58,10.25 31.49,18.17 7.91,7.92 13.65,17.76 17.2,29.56 3.56,11.79 5.33,25.11 5.33,39.97l0 150.68 -58.63 0zm85.27 0l0 -238.37 62.98 0 0 238.37 -62.98 0zm0 -266.96l0 -58.62 62.98 0 0 58.62 -62.98 0z"/>
  </g>
 </g>
</svg>
